<!DOCTYPE svg PUBLIC "-//W3C//DTD SVG 1.1//EN" "http://www.w3.org/Graphics/SVG/1.1/DTD/svg11.dtd">
<!-- Uploaded to: SVG Repo, www.svgrepo.com, Transformed by: SVG Repo Mixer Tools -->
<svg fill="#555f7c" version="1.1" id="Layer_1" xmlns="http://www.w3.org/2000/svg" xmlns:xlink="http://www.w3.org/1999/xlink" viewBox="0 0 512 512" xml:space="preserve" width="800px" height="800px" stroke="#555f7c">
<g id="SVGRepo_bgCarrier" stroke-width="0"/>
<g id="SVGRepo_tracerCarrier" stroke-linecap="round" stroke-linejoin="round"/>
<g id="SVGRepo_iconCarrier"> <g> <g> <path d="M256,15.63c-50.108,0-90.874,40.766-90.874,90.874c0,50.108,40.766,90.874,90.874,90.874s90.874-40.766,90.874-90.874 C346.874,56.396,306.108,15.63,256,15.63z M293.865,120.758l-23.611,23.611L256,130.114l-14.254,14.254l-23.611-23.611 l14.254-14.254l-14.254-14.253l23.611-23.611L256,82.893l14.254-14.254l23.611,23.611l-14.254,14.254L293.865,120.758z"/> </g> </g> <g> <g> <rect y="207.493" width="33.391" height="36.374"/> </g> </g> <g> <g> <rect y="99.995" width="33.391" height="36.374"/> </g> </g> <g> <g> <rect x="50.087" y="153.744" width="33.391" height="36.374"/> </g> </g> <g> <g> <path d="M390.827,399.048c-26.831,0-48.661,21.829-48.661,48.661s21.829,48.661,48.661,48.661 c26.832,0,48.661-21.829,48.661-48.661S417.658,399.048,390.827,399.048z"/> </g> </g> <g> <g> <path d="M139.13,399.048c-26.831,0-48.661,21.829-48.661,48.661s21.829,48.661,48.661,48.661s48.661-21.829,48.661-48.661 S165.961,399.048,139.13,399.048z"/> </g> </g> <g> <g> <path d="M456.42,325.075l-48.475-97.899h-232.53l-41.703,84.222l-65.237-78.22L42.83,254.565l59.688,71.568H0v138.272h58.79 c-1.12-5.393-1.712-10.976-1.712-16.696c0-45.244,36.808-82.052,82.052-82.052c45.244,0,82.052,36.808,82.052,82.052 c0,5.72-0.592,11.303-1.712,16.696h91.016c-1.12-5.393-1.712-10.976-1.712-16.696c0-45.244,36.808-82.052,82.052-82.052 s82.052,36.808,82.052,82.052c0,5.72-0.592,11.303-1.712,16.696H512v-139.33H456.42z M274.984,325.075H164.198l31.942-64.508 h78.844V325.075z M308.375,325.075v-64.508h78.844l31.941,64.508H308.375z"/> </g> </g> </g>
</svg>