<!DOCTYPE svg PUBLIC "-//W3C//DTD SVG 1.1//EN" "http://www.w3.org/Graphics/SVG/1.1/DTD/svg11.dtd">
<!-- Uploaded to: SVG Repo, www.svgrepo.com, Transformed by: SVG Repo Mixer Tools -->
<svg fill="#c22929" height="800px" width="800px" version="1.1" id="Layer_1" xmlns="http://www.w3.org/2000/svg" xmlns:xlink="http://www.w3.org/1999/xlink" viewBox="0 0 511.999 511.999" xml:space="preserve">
<g id="SVGRepo_bgCarrier" stroke-width="0"/>
<g id="SVGRepo_tracerCarrier" stroke-linecap="round" stroke-linejoin="round"/>
<g id="SVGRepo_iconCarrier"> <g> <g> <path d="M498.342,238.7L339.177,79.535c-3.429-3.427-8.985-3.427-12.412,0c-3.427,3.427-3.427,8.983,0,12.411L483.359,248.54 v24.079L262.212,51.472c-3.427-3.426-8.985-3.427-12.411,0L28.64,272.619v-24.079L256.005,21.187l46.767,46.768 c3.429,3.426,8.985,3.429,12.412,0c3.427-3.427,3.427-8.983,0-12.411L262.211,2.57c-3.427-3.426-8.985-3.427-12.411,0 L13.658,238.701c-1.646,1.645-2.571,3.878-2.571,6.205v48.902c0,3.549,2.138,6.75,5.418,8.108c3.28,1.359,7.054,0.607,9.565-1.903 l60.388-60.386v100.941c0,4.847,3.928,8.776,8.776,8.776s8.776-3.93,8.776-8.776V222.076L256.005,70.088L408,222.083v272.364 H104.011V373.333c0-4.847-3.928-8.776-8.776-8.776c-4.848,0-8.776,3.929-8.776,8.776v129.89c0,4.847,3.928,8.776,8.776,8.776 h321.541c4.848,0,8.776-3.929,8.776-8.776V239.635l60.378,60.378c1.68,1.679,3.925,2.571,6.209,2.571 c1.13,0,2.27-0.219,3.356-0.668c3.28-1.359,5.418-4.559,5.418-8.108v-48.902C500.912,242.578,499.988,240.346,498.342,238.7z"/> </g> </g> <g> <g> <path d="M330.904,261.204c-2.753-3.989-8.217-4.993-12.208-2.241c-3.989,2.752-4.993,8.218-2.241,12.207 c18.544,26.879,26.273,54.601,22.975,82.393c-2.998,25.269-18.147,45.038-42.334,56.005c0.625-4.036,0.94-8.343,0.94-12.909 c0-17.336-9.147-28.162-17.994-38.629c-9.291-10.995-18.068-21.38-19.031-40.879c-0.157-3.164-2.006-5.997-4.839-7.415 c-2.834-1.419-6.21-1.199-8.835,0.572c-22.952,15.48-36.015,34.028-38.827,55.127c-2.457,18.447,3.569,35.367,10.363,47.835 c-24.239-8.171-46.32-26.178-47.026-57.189c-0.672-29.683,12.505-42.012,29.187-57.622c18.992-17.773,42.24-39.526,46.003-91.898 c12.363,7.935,32.09,22.003,50.138,41.019c3.337,3.516,8.892,3.661,12.409,0.324c3.515-3.336,3.66-8.891,0.324-12.407 c-30.991-32.654-65.567-51.09-67.023-51.859c-2.719-1.435-5.991-1.342-8.629,0.246c-2.634,1.588-4.244,4.44-4.244,7.516 c0,55.904-20.828,75.393-40.969,94.242c-17.498,16.373-35.592,33.304-34.739,70.838c0.502,22.066,9.636,41.286,26.418,55.58 c14.572,12.412,34.772,20.688,56.877,23.302c0.344,0.041,0.688,0.061,1.03,0.061c3.218,0,6.234-1.775,7.772-4.658 c1.707-3.202,1.266-7.146-1.106-9.892c-5.378-6.224-22.668-28.448-19.382-53.119c1.642-12.334,8.327-23.778,19.92-34.147 c4.251,16.167,13.242,26.808,20.802,35.754c7.736,9.155,13.848,16.387,13.848,27.3c0,9.407-1.584,17.06-4.71,22.744 c-1.689,3.073-1.388,6.856,0.768,9.622c2.157,2.766,5.751,3.984,9.143,3.096c40.132-10.492,66.74-39.086,71.178-76.49 C360.678,323.474,351.944,291.704,330.904,261.204z"/> </g> </g> </g>
</svg>